<?xml version="1.0" encoding="UTF-8" standalone="no"?>
<!-- Created with Inkscape (http://www.inkscape.org/) -->

<svg
   width="32"
   height="32"
   viewBox="0 0 32 32"
   version="1.1"
   id="svg1"
   xmlns="http://www.w3.org/2000/svg"
   xmlns:svg="http://www.w3.org/2000/svg">
  <defs
     id="defs1" />
  <g
     id="layer1">
    <path
       id="rect1"
       style="baseline-shift:baseline;display:inline;overflow:visible;opacity:1;vector-effect:none;fill:#ffffff;stroke-linecap:square;paint-order:stroke fill markers;enable-background:accumulate;stop-color:#000000;stop-opacity:1"
       d="m 3.9433594,2.4707031 c -1.988221,0 -3.6308594,1.6426384 -3.6308594,3.6308594 v 4.7187495 a 1.4,1.4 0 0 0 0,0.0918 v 14.986329 c 0,1.988222 1.6426384,3.630859 3.6308594,3.630859 H 28.056641 c 1.988221,0 3.630859,-1.642638 3.630859,-3.630859 V 10.912109 a 1.4,1.4 0 0 0 0,-0.0918 V 6.1015625 c 0,-1.988221 -1.642638,-3.6308594 -3.630859,-3.6308594 z m 0,2.7988281 H 28.056641 c 0.485453,0 0.832031,0.346578 0.832031,0.8320313 V 10.050781 L 16,17.402344 3.1113281,10.050781 V 6.1015625 c 0,-0.4854533 0.346578,-0.8320313 0.8320313,-0.8320313 z M 3.1113281,13.275391 16,20.625 28.888672,13.275391 v 12.623047 c 0,0.485454 -0.346578,0.832031 -0.832031,0.832031 H 3.9433594 c -0.4854533,0 -0.8320313,-0.346577 -0.8320313,-0.832031 z" />
  </g>
</svg>
