<?xml version="1.0" encoding="UTF-8" standalone="no"?>
<!-- Created with Inkscape (http://www.inkscape.org/) -->

<svg
   width="32"
   height="32"
   viewBox="0 0 32 32"
   version="1.1"
   id="svg1"
   xmlns="http://www.w3.org/2000/svg"
   xmlns:svg="http://www.w3.org/2000/svg">
  <defs
     id="defs1" />
  <g
     id="layer1">
    <path
       id="rect1"
       style="baseline-shift:baseline;display:inline;overflow:visible;opacity:1;vector-effect:none;fill:#ffffff;stroke-linecap:square;paint-order:stroke fill markers;enable-background:accumulate;stop-color:#000000;stop-opacity:1"
       d="m 10.214844,0.41601562 c -5.4019662,0 -9.79882838,4.39686218 -9.79882838,9.79882838 v 0.191406 3 8.378906 c 0,5.401966 4.39686218,9.798828 9.79882838,9.798828 h 11.570312 c 5.401966,0 9.798828,-4.396862 9.798828,-9.798828 V 10.214844 c 0,-5.4019662 -4.396862,-9.79882838 -9.798828,-9.79882838 z m 0,2.99999998 h 11.570312 c 3.791858,0 6.798828,3.0069706 6.798828,6.7988284 V 10.40625 H 21.132812 C 19.777752,9.1610633 17.974091,8.3984375 16,8.3984375 c -1.974091,0 -3.777752,0.7626258 -5.132812,2.0078125 H 3.4160156 v -0.191406 c 0,-3.7918579 3.0069705,-6.7988284 6.7988284,-6.7988284 z M 16,11.398438 c 2.559561,0 4.601562,2.042001 4.601562,4.601562 0,2.559561 -2.042001,4.601562 -4.601562,4.601562 -2.559561,0 -4.601562,-2.042001 -4.601562,-4.601562 0,-2.559561 2.042001,-4.601562 4.601562,-4.601562 z M 3.4160156,13.40625 H 8.8574219 C 8.5609274,14.21657 8.3984375,15.09029 8.3984375,16 c 0,4.180881 3.4206815,7.601563 7.6015625,7.601562 4.180881,0 7.601562,-3.420681 7.601562,-7.601562 0,-0.90971 -0.162489,-1.78343 -0.458984,-2.59375 h 5.441406 v 8.378906 c 0,3.791858 -3.00697,6.798828 -6.798828,6.798828 H 10.214844 c -3.7918579,0 -6.7988284,-3.00697 -6.7988284,-6.798828 z" />
    <circle
       style="fill:#ffffff;fill-opacity:1;stroke:none;stroke-width:10.8;stroke-linecap:square;stroke-dasharray:none;stroke-opacity:1;paint-order:stroke fill markers"
       id="path5"
       cx="23.693394"
       cy="7.4024849"
       r="1.4535969" />
  </g>
</svg>
